DESCRIPTION>>>>>>

Plot:

 A tale of double cross and revenge, centered upon the members of an elite U.S. Special Forces unit sent into the Bolivian jungle on a search and destroy mission. The team-Clay, Jensen, Roque, Pooch and Cougar -find themselves the target of a lethal betrayal instigated from inside by a powerful enemy known only as Max. Presumed dead, the group makes plans to even the score when they’re joined by the mysterious Aisha, a beautiful operative with her own agenda. Working together, they must remain deep undercover while tracking the heavily-guarded Max, a ruthless man bent on embroiling the world in a new high-tech global war.

www.imdb.com/title/tt0480255/
========================================================
Video
ID : 0
Format : MPEG-4 Visual
Format profile : Advanced Simple@L5
Format settings, BVOP : Yes
Format settings, QPel : No
Format settings, GMC : No warppoints
Format settings, Matrix : Default (H.263)
Codec ID : XVID
Codec ID/Hint : XviD
Duration : 1h 36mn
Bit rate : 870 Kbps
Width : 640 pixels
Height : 272 pixels
Display aspect ratio : 2.35:1
Frame rate : 23.976 fps
Resolution : 8 bits
Colorimetry : 4:2:0
Scan type : Progressive
Bits/(Pixel*Frame) : 0.208
Stream size : 603 MiB (86%)
Writing library : XviD 1.2.1 (UTC 2008-12-04)

Audio
ID : 1
Format : MPEG Audio
Format version : Version 1
Format profile : Layer 3
Mode : Joint stereo
Format_Settings_ModeExtension : MS Stereo
Codec ID : 55
Codec ID/Hint : MP3
Duration : 1h 36mn
Bit rate mode : Variable
Bit rate : 125 Kbps
Nominal bit rate : 128 Kbps
Channel(s) : 2 channels
Sampling rate : 48.0 KHz
Stream size : 86.8 MiB (12%)
Alignment : Aligned on interleaves
Interleave, duration : 24 ms (0.58 video frame)
Interleave, preload duration : 147 ms
Writing library : LAME3.90.
Encoding settings : -m j -V 4 -q 2 -lowpass 17.6 --abr 128
========================================================

Screens
 
http://www.postimg.com/image/15000/14228.jpg
 
http://www.postimg.com/image/15000/14229.jpg
 
http://www.postimg.com/image/15000/14230.jpg
 
http://www.postimg.com/image/15000/14231.jpg



END OF DESCRIPTION>>>>>>
